<svg version="1.1" id="Layer_1" xmlns="http://www.w3.org/2000/svg" xmlns:xlink="http://www.w3.org/1999/xlink" x="0px" y="0px"
	 width="100%" viewBox="0 0 320 288" enable-background="new 0 0 320 288" xml:space="preserve">
<path fill="#000000" opacity="1.000000" stroke="none" 
	d="
M222.610062,260.626465 
	C232.992950,252.361313 236.625961,240.658218 240.545074,229.127579 
	C241.401138,226.608917 242.055359,224.022293 242.865662,221.487152 
	C243.255768,220.266708 244.111374,219.483978 245.480743,219.648788 
	C246.612350,219.784973 247.236069,220.604721 247.426575,221.652191 
	C247.722153,223.277557 248.094940,224.924149 248.096817,226.562134 
	C248.113052,240.727753 248.109161,254.893906 247.996811,269.058990 
	C247.923233,278.335632 247.801682,278.384247 238.399292,278.386566 
	C197.734848,278.396667 157.070404,278.400299 116.405960,278.392151 
	C115.078857,278.391876 113.734711,278.343018 112.429459,278.128510 
	C111.108383,277.911377 110.471062,276.838257 110.361488,275.618561 
	C110.251114,274.390045 110.712288,273.305450 112.029198,272.871613 
	C112.818398,272.611633 113.635437,272.437225 114.436394,272.211639 
	C125.130722,269.200287 128.448868,264.934387 128.789917,253.727631 
	C128.845657,251.895721 128.851822,250.061768 128.851028,248.228760 
	C128.847855,240.956818 128.845642,240.940628 121.705002,239.977631 
	C119.362022,239.661652 117.380730,239.021072 117.575813,236.088562 
	C117.769089,233.183105 119.819214,232.826691 122.169067,232.681473 
	C128.811066,232.270966 128.827072,232.229965 128.819183,225.614639 
	C128.798309,208.115845 128.871628,190.615829 128.673935,173.118927 
	C128.593811,166.028763 126.543472,159.647751 119.857986,155.761887 
	C118.652672,155.061310 117.571663,154.127457 118.063019,152.574020 
	C118.471123,151.283813 119.822586,151.043472 120.954498,150.997635 
	C130.437088,150.613754 139.919540,150.270981 149.399307,151.175995 
	C154.030411,151.618103 155.430588,154.199417 155.404205,158.618210 
	C155.273895,180.449692 155.339523,202.282379 155.354523,224.114655 
	C155.358612,230.065170 156.227020,230.789185 161.625504,228.404465 
	C179.361694,220.569717 188.993149,206.813507 190.749908,187.565598 
	C192.119690,172.557617 189.163132,158.649353 179.276505,146.855209 
	C169.601639,135.313690 157.271469,128.748138 142.033524,128.276642 
	C136.206039,128.096359 130.368317,128.272919 124.536148,128.207123 
	C121.586693,128.173843 117.874985,128.692810 117.891182,124.257095 
	C117.906738,119.995132 121.540573,120.804977 124.260765,120.694565 
	C131.570084,120.397896 138.869736,120.924637 146.201172,119.910812 
	C164.729279,117.348625 178.842484,102.066254 179.741776,83.297829 
	C180.385345,69.866585 178.590668,57.364376 168.111328,47.553417 
	C162.262955,42.078072 155.257935,39.014706 147.487152,38.465031 
	C138.695343,37.843128 129.828476,37.955349 121.005844,38.187996 
	C112.197197,38.420269 109.106277,41.292904 107.951759,49.860645 
	C106.611534,59.806419 107.452209,69.828598 107.415283,79.811432 
	C107.279045,116.642426 107.475372,153.474823 107.289970,190.305374 
	C107.206749,206.837021 105.506714,223.161194 99.024460,238.680984 
	C92.420105,254.493118 79.849358,263.380646 64.465630,269.071594 
	C56.448822,272.037262 48.198551,273.913788 39.540134,273.356232 
	C37.189846,273.204865 34.395107,273.542542 34.198891,270.318481 
	C34.003849,267.113708 36.718681,266.910583 39.112698,266.698273 
	C59.054470,264.929810 72.266434,253.261887 76.693474,233.739853 
	C78.725899,224.777435 79.777481,215.781967 79.756554,206.560684 
	C79.647629,158.563370 79.744865,110.565620 79.756561,62.568012 
	C79.757294,59.569401 79.909088,56.536392 79.530060,53.578400 
	C78.243835,43.540764 73.450302,39.066284 62.985485,37.149139 
	C60.404434,36.676292 55.762192,37.625870 56.227394,33.258720 
	C56.624775,29.528248 60.757038,30.761356 63.379894,30.756613 
	C89.544640,30.709282 115.717880,30.393913 141.871140,30.962540 
	C155.791840,31.265207 169.839783,32.252132 182.596069,39.147263 
	C198.103714,47.529572 206.880173,60.326176 207.157318,78.035889 
	C207.439972,96.098633 198.290817,108.941040 182.955627,117.679817 
	C179.238373,119.798103 175.256851,121.452644 170.903778,123.559029 
	C176.184219,126.705055 181.798935,127.741989 186.774673,130.370010 
	C219.742996,147.782791 228.337234,188.816391 204.748520,217.558716 
	C193.457489,231.316589 177.819962,236.645325 160.963821,238.916580 
	C156.347733,239.538574 155.090424,241.123215 155.271194,245.457397 
	C155.562637,252.444962 155.494263,259.457489 155.296066,266.451508 
	C155.190643,270.171906 156.773865,271.617126 160.292725,271.556946 
	C173.607498,271.329193 186.960846,271.901154 200.222183,270.562744 
	C208.490753,269.728271 215.847198,266.102478 222.610062,260.626465 
z"/>
</svg>